<svg xmlns="http://www.w3.org/2000/svg" width="261.159" height="40" viewBox="0 0 261.159 40"><defs><style>.a{fill:#053d58;}.b{fill:#143d59;}.c{fill:#f79647;}</style></defs><g transform="translate(0 0)"><path class="a" d="M703.784,48.065c0,6.776,4.767,11.544,10.873,11.544a9.588,9.588,0,0,0,7.761-3.822l1.891,1.183a11.823,11.823,0,0,1-9.651,4.687c-7.367,0-13.237-5.516-13.237-13.594s5.87-13.594,13.237-13.594a11.9,11.9,0,0,1,9.651,4.648l-1.891,1.22a9.591,9.591,0,0,0-7.761-3.82C708.551,36.523,703.784,41.211,703.784,48.065Z" transform="translate(-591.825 -29.084)"/><path class="a" d="M870.18,50.153V63.546h-2.048V50.578c0-3.664-1.852-4.687-4.609-4.687a8.144,8.144,0,0,0-6.184,3.269V63.534H855.29V37.27h2.049V47.395a9.642,9.642,0,0,1,6.854-3.348C868.057,44.046,870.18,45.859,870.18,50.153Z" transform="translate(-721.653 -31.447)"/><path class="a" d="M971.753,80.64a9.24,9.24,0,0,0-7.328,3.191l1.144,1.419a7.4,7.4,0,0,1,5.948-2.8c2.836,0,5.122,1.536,5.122,4.375v3.861a8.231,8.231,0,0,0-6.461-2.719c-3.309,0-6.658,2.167-6.658,6.3,0,4.1,3.387,6.342,6.658,6.342a8.289,8.289,0,0,0,6.461-2.719v2.245h2.048v-13.4C978.687,82.492,975.614,80.64,971.753,80.64ZM976.639,96.4a7.113,7.113,0,0,1-5.753,2.6c-3.151,0-5.2-2.009-5.2-4.687,0-2.719,2.049-4.728,5.2-4.728a7.15,7.15,0,0,1,5.753,2.639Z" transform="translate(-812.972 -68.04)"/><rect class="a" width="2.048" height="26.276" transform="translate(168.758 5.823)"/><rect class="a" width="2.048" height="26.276" transform="translate(173.85 5.823)"/><path class="a" d="M1156.342,90.724c0-5.469-3.191-10.084-8.983-10.084-5.278,0-9.18,4.452-9.18,9.967,0,5.87,3.98,10,9.531,10a9.818,9.818,0,0,0,7.447-3.073l-1.064-1.339a8.365,8.365,0,0,1-6.225,2.639c-4.491,0-7.248-3.427-7.445-7.564h15.915Zm-15.915-1.062c.156-3.309,2.4-7.25,6.894-7.25,4.767,0,6.894,4.019,6.934,7.25Z" transform="translate(-960.342 -68.04)"/><path class="a" d="M1281.707,86.824V100.14h-2.054V87.259c0-3.664-1.852-4.767-4.609-4.767a8.146,8.146,0,0,0-6.184,3.269v14.375h-2.049V81.112h2.061v2.877a9.643,9.643,0,0,1,6.855-3.348C1279.579,80.64,1281.707,82.531,1281.707,86.824Z" transform="translate(-1068.874 -68.04)"/><path class="a" d="M1389.688,81.112v3.073a8.083,8.083,0,0,0-6.619-3.545c-5.042,0-8.509,3.939-8.509,9.967,0,6.106,3.467,9.928,8.509,9.928a8.24,8.24,0,0,0,6.619-3.547v3c0,4.375-3.033,6.106-6.5,6.106-2.836,0-4.648-.709-6.3-2.68l-1.181,1.577c2.245,2.284,4.294,2.875,7.484,2.875,4.648,0,8.594-2.087,8.594-7.919V81.112Zm0,14.1a7.654,7.654,0,0,1-6.264,3.466c-4.219,0-6.658-3.466-6.658-8.075s2.444-8.116,6.658-8.116a7.658,7.658,0,0,1,6.264,3.467Z" transform="translate(-1159.788 -68.04)"/><path class="a" d="M1515.072,90.724c0-5.469-3.192-10.084-8.983-10.084-5.28,0-9.18,4.452-9.18,9.967,0,5.87,3.98,10,9.531,10a9.812,9.812,0,0,0,7.445-3.073l-1.063-1.339a8.364,8.364,0,0,1-6.224,2.639c-4.492,0-7.249-3.427-7.447-7.564h15.917Zm-15.917-1.062c.156-3.309,2.4-7.25,6.9-7.25,4.767,0,6.893,4.019,6.933,7.25Z" transform="translate(-1263.021 -68.04)"/><path class="b" d="M30.78,58.8h-.839a.144.144,0,0,1-.044.008l-.647-.008H25.241c-1.33,0-1.944-.02-1.861-.58.048-.312.508-.4.716-.456a1.97,1.97,0,0,0,1.355-1.353,2.148,2.148,0,0,1,.041-.23c.106-.684.027-15.937.027-15.937-.031-1.139-.48-1.241-1-.223,0,0-6.358,12.5-6.808,13.475-.612,1.316-.612,1.73-2.106,1.719-1.331-.016-1.42-.342-1.853-1.208-.508-1.017-3.348-6.392-3.891-7.4L6.895,41.1c-.541-1-1-.891-1.028.248l-.106,4.492c-.027,1.142-.058,3-.072,4.147v.352c-.013,1.139.016,3,.059,4.145a13.233,13.233,0,0,0,.212,1.519.039.039,0,0,0,0,.016c.3,1,.641,1.522,1.464,1.752.2.058.669.147.714.456.086.559-.531.58-1.862.58H3.02L3,58.825a2.116,2.116,0,0,1-.233-.014h-.9c-1.33,0-1.947-.02-1.861-.58.045-.312.509-.4.714-.456a2.064,2.064,0,0,0,1.461-1.752.061.061,0,0,1,.034-.042c.03-.156.058-.312.073-.455.1-.88.112-20.937.112-21.433a1.864,1.864,0,0,0-1.128-1.739c-.2-.066-.667-.155-.712-.467-.087-.562.514-.575,1.844-.575h2.68a6.035,6.035,0,0,1,2.125.156A12.067,12.067,0,0,1,8.1,33.524l2.241,4.739c.544,1,1.437,2.641,1.983,3.641l3.192,5.856c.548,1,1.419.992,1.942-.023l3.056-5.923c.523-1.009,1.406-2.737,1.933-3.75l2.014-4.486a10.282,10.282,0,0,1,.958-2.08c.191-.223.914-.183,1.909-.183H28a7.763,7.763,0,0,1,1.669.109c.312.114.253.937.275,2.081,0,0,.5,22.018.522,22.515a2.42,2.42,0,0,0,1.461,1.752c.2.072.667.147.714.456C32.723,58.781,32.11,58.8,30.78,58.8Z" transform="translate(0 -26.419)"/><path class="b" d="M245.212,57.938c-.033-.219-.336-.312-.556-.37l-.134-.042a3.18,3.18,0,0,1-1.477-1.573,3.747,3.747,0,0,1-.142-.859c-.017-.716-.056-2.414-.106-4.575l-.011-17.62v-.286c0-1.309.128-1.241-1.508-1.292h-2.9c-1.194,0-1.744.017-1.667.525.044.275.455.355.639.408A2,2,0,0,1,238.7,34.32l-.011,8.75H238.6c-1.2-2.344-3.889-2.908-5.312-2.908-5.28,0-8.248,4.277-8.248,9.262v.031a19.212,19.212,0,0,1-1.562,2.656c-.178.242-3.906,4.972-7.859,4.972a2.915,2.915,0,0,1-3.158-3.091,13.281,13.281,0,0,1,.3-3c4.122-.4,11.484-2.383,11.484-7.844,0-2.208-2.042-2.853-3.777-2.853-5.584,0-11.094,7.108-11.094,13.533,0,2.691,1.191,5.422,4.736,5.422,5.491,0,8.914-4.608,10.061-6.351.245-.372.672-1.166.9-1.6l.073-.375c.108.672.345,1.652.345,1.655,1.075,3.614,3.828,6.234,7.32,6.234h.025c2.053,0,4.65-.909,5.792-2.877h.091a7.691,7.691,0,0,1,.08,1.306c0,1.23-.091,1.216,1.269,1.216h3.287c.983,0,1.6-.011,1.786-.233a.3.3,0,0,0,.067-.2A.435.435,0,0,0,245.212,57.938ZM219.6,41.582a1.532,1.532,0,0,1,1.58,1.719c0,4.375-4.659,6.3-8.206,6.547C213.589,47.207,216.633,41.582,219.6,41.582Zm16.965,15a5.385,5.385,0,0,1-2.969,1.166c-3.411,0-4.345-1.931-4.345-8.992,0-3.661.322-7.569,4.123-7.569,2.512,0,4.322,1.608,5.092,4.531a19.2,19.2,0,0,1,.313,3.928C238.778,54.207,238.237,55.077,236.562,56.582Z" transform="translate(-176.665 -26.426)"/><path class="c" d="M457.339,50.314c-2.286,0-7.119-3.989-7.119-6.366S453.4,41.7,455.689,41.7l.225,2.245c-.156,0-2.892-.312-2.622,1.048q.267,1.369,3.445,3.145Z" transform="translate(-379.874 -35.186)"/><path class="c" d="M514.488,31.693a4.15,4.15,0,0,0-3.967,2.994H497.414c1.406-.664,2.5-1.2,3.33-1.642q.781-.408,1.227-.7a4.142,4.142,0,0,0,.486-.355,2.086,2.086,0,0,0,.3-.312,1.534,1.534,0,0,0,.328-.964V25.312c6.458-1.319,11.094-11.3,11.094-23.217V.6h-5.8a2.1,2.1,0,1,0,0,3h2.776a32.656,32.656,0,0,1-3.05,13.281c-1.83,3.62-4.172,5.581-6.476,5.581s-4.647-1.961-6.478-5.581A32.746,32.746,0,0,1,492.093,3.6h2.7a2.1,2.1,0,1,0,0-3H489.07V2.1c0,11.875,4.6,21.822,11.014,23.2v4.687c-.2.114-.445.25-.739.4-.819.431-1.947.984-3.4,1.673l-.4.189c-.917.433-3.75,1.755-3.809,1.778-.575.269-.967.456-1.239.591-.17.086-.3.156-.394.208a1.734,1.734,0,0,0-.313.22,1.517,1.517,0,0,0-.5,1.262,1.481,1.481,0,0,0,.937,1.259,1.459,1.459,0,0,0,.563.106h19.953a4.156,4.156,0,1,0,3.75-5.991Zm.023,6.291a2.1,2.1,0,1,1,2.066-2.1A2.1,2.1,0,0,1,514.512,37.984Z" transform="translate(-412.654 0)"/><path class="c" d="M643.935,43.948l.225-2.245c2.286,0,5.469-.13,5.469,2.245s-4.833,6.366-7.119,6.366l.6-2.172q3.175-1.777,3.447-3.145C646.827,43.623,644.085,43.948,643.935,43.948Z" transform="translate(-542.12 -35.186)"/><path class="a" d="M1611.591,37.5V33.055H1610V32.5h3.8v.555h-1.59V37.5Z" transform="translate(-1358.441 -27.422)"/><path class="a" d="M1644.358,37.52V33.4l-1.7,4.117h-.255l-1.7-4.117V37.52h-.625v-5h.892l1.553,3.766,1.563-3.766h.892v5Z" transform="translate(-1383.822 -27.439)"/></g></svg>