<svg xmlns="http://www.w3.org/2000/svg" xmlns:xlink="http://www.w3.org/1999/xlink" width="238.783" height="60" viewBox="0 0 238.783 60"><defs><style>.a,.b{fill:#231f20;}.b,.d{fill-rule:evenodd;}.c,.d{fill:#005b81;}.e{fill:url(#a);}</style><linearGradient id="a" y1="0.5" x2="1" y2="0.5" gradientUnits="objectBoundingBox"><stop offset="0" stop-color="#1578a1"/><stop offset="1" stop-color="#005b81"/></linearGradient></defs><g transform="translate(-189.433 -796.236)"><path class="a" d="M1282.536,976.347h0c.019-.548-.162-.83-.6-.8a.362.362,0,0,0-.136.033c-.324.075-.46.563-.541.792h0c-.032.1-.057.2-.076.268h-.006l-.034.1c-1.147,3.44-3.773,5.657-6.535,5.516-2.318-.135-3.872-1.035-4.616-2.676a15.763,15.763,0,0,1-1-5.748c0-6.987,1.546-9.585,5.711-9.585,1.188,0,3.969.577,3.969,1.694,0,.115-.174.255-.376.414a2.628,2.628,0,0,0-1.175,2.249,2.317,2.317,0,0,0,2.421,2.421,2.5,2.5,0,0,0,2.324-2.712c0-3.908-4.632-5.326-7.745-5.326-2.551,0-9.829,1.992-9.829,10.846,0,2.707,1.78,9.73,9.923,9.73,5.427-.208,7.245-3.705,8.224-6.731l.062-.192h-.009a1.274,1.274,0,0,0,.043-.289" transform="translate(-916.45 -142.172)"/><path class="a" d="M1674.272,967.012a4.727,4.727,0,0,1,4.171-2.948c1.966,0,4.308.772,4.308,4.453v1.5h-8.94a11.733,11.733,0,0,1,.461-3m13.188,9.206h0c.022-.563-.169-.855-.622-.829a.4.4,0,0,0-.141.034c-.333.079-.475.584-.56.819h0c-.022.076-.043.148-.06.211h-.012l-.025.117a7.292,7.292,0,0,1-6.536,5.5c-4.816,0-5.759-3.123-5.759-8.519v-1.839h12.512c.574,0,1.316.153,1.1-1.413a8.444,8.444,0,0,0-8.773-7.5c-6.063,0-9.686,5.637-9.686,11.088,0,5.677,5.083,9.488,9.83,9.488,4.582,0,7.742-2.458,8.663-6.746l.038-.179h0a1.185,1.185,0,0,0,.03-.235" transform="translate(-1261.429 -142.017)"/><path class="a" d="M1404.157,976.984c0,1.849-.57,2.407-.949,2.776l-.074.071a4.919,4.919,0,0,1-3.624,1.364,3.4,3.4,0,0,1-3.581-3.679c0-3.13,2.774-4.769,8.228-4.882v4.35Zm7.612,2.063c-.057-.559-.215-.749-.6-.689-.33.051-.432.547-.5.772h.006l-.028.088c-.405,1.4-.912,2.075-1.552,2.075-.83,0-.873-.536-.873-2.081V967.689c0-1.948,0-4.893-6.728-4.893-5.75,0-7.895,2.942-7.895,4.8a2.191,2.191,0,0,0,2.181,2.469,2.04,2.04,0,0,0,2.131-2.179,2.252,2.252,0,0,0-1.144-1.956c-.124-.087-.308-.218-.308-.271,0-1.216,3.194-1.595,4.357-1.595,1,0,3.339.273,3.339,2.805v4.461c-7.574.035-12.005,2.634-12.153,7.155,0,3.156,2.065,4.893,5.813,4.893a8.357,8.357,0,0,0,6.468-2.829,3.212,3.212,0,0,0,3.213,2.829,4.279,4.279,0,0,0,4.258-4.105l.01-.156,0-.065Z" transform="translate(-1025.339 -142.013)"/><path class="b" d="M1156.173,975.863h.018l-.019,0v0m13.927.738c0-3.261-1.493-4.9-5.151-5.663-7.351-1.489-7.678-2.182-7.678-3.488a3.627,3.627,0,0,1,1.071-2.283,4.418,4.418,0,0,1,3.331-1.1c3.257.163,4.592,2.713,5.136,4.827a.579.579,0,0,1,.028.11c.143.765,1.328.819,1.328,0v-5.485l-.01,0c-.006-.345-.156-.529-.466-.567a.289.289,0,0,0-.068,0l-.012,0c-.333-.038-.557.415-.678.615-.214.323-.557.836-.648.973a7.245,7.245,0,0,0-4.463-1.734c-5.273,0-6.681,3.836-6.681,6.1,0,4.106,2.6,4.726,5.615,5.444l.5.119c3.724.942,6.57,1.807,6.57,3.635a3.559,3.559,0,0,1-.874,2.306l0,0-.081.091a5.169,5.169,0,0,1-3.658,1.6c-3.343,0-5.944-2.3-6.958-6.138l-.026-.1h-.006c-.062-.226-.159-.714-.486-.764a.417.417,0,0,0-.181.005c-.3.01-.424.256-.474.768h0a1.116,1.116,0,0,0-.022.312v6.264h0c-.012.553.108.809.519.823.245.007.472-.352.591-.587.147-.242.9-1.466,1.029-1.678a7.977,7.977,0,0,0,5.708,2.37,7.633,7.633,0,0,0,5.222-1.9l.1-.114h0a6.592,6.592,0,0,0,1.873-4.751" transform="translate(-823.31 -142.017)"/><path class="c" d="M680.389,926.5a2.618,2.618,0,0,1-1.581-1.893c-.016-.539-.561-24.337-.561-24.337-.024-1.233.032-2.128-.3-2.251a14.078,14.078,0,0,0-2.525-.115c-1.074,0-1.869-.03-2.062.2a10.908,10.908,0,0,0-1.036,2.247l-2.177,4.849c-.565,1.1-1.524,2.966-2.088,4.059l-3.306,6.4c-.564,1.1-1.506,1.107-2.1.025l-3.45-6.33c-.591-1.08-1.556-2.852-2.144-3.935l-2.421-5.112a13.133,13.133,0,0,0-.965-2.22,5.959,5.959,0,0,0-2.3-.176h-2.9c-1.438,0-2.087.016-1.993.624.05.333.55.428.771.49a2.01,2.01,0,0,1,1.217,1.879c0,.536-.018,22.217-.122,23.166-.016.161-.046.323-.08.493a.058.058,0,0,0-.034.047,2.24,2.24,0,0,1-1.58,1.893c-.221.061-.722.159-.771.492-.094.606.572.628,2.01.628l.971,0a2.4,2.4,0,0,0,.252.014l.019-.014h1.139l2.382,0c1.438,0,2.106-.022,2.013-.628-.05-.333-.551-.43-.771-.492-.893-.249-1.257-.813-1.584-1.893v-.017a13.982,13.982,0,0,1-.231-1.643c-.047-1.233-.077-3.249-.063-4.48l0-.382c.013-1.232.047-3.248.075-4.48l.115-4.858c.028-1.232.528-1.354,1.113-.268l3.2,5.952c.585,1.087,3.657,6.9,4.2,8,.467.936.564,1.287,2.006,1.306,1.612.021,1.612-.428,2.275-1.85.485-1.045,7.358-14.567,7.358-14.567.559-1.1,1.044-.988,1.077.244,0,0,.087,16.488-.028,17.228-.019.112-.035.192-.043.247a2.134,2.134,0,0,1-1.466,1.464c-.222.061-.721.159-.774.492-.09.606.575.628,2.012.628l2.995-.006h1.34l.7.008a.159.159,0,0,0,.047-.008l.908,0c1.441,0,2.1-.022,2.013-.628-.052-.333-.556-.415-.772-.492Z" transform="translate(-389.18 -86.685)"/><path class="d" d="M1012.365,925.578a5.908,5.908,0,0,1-3.26,1.276c-3.742,0-4.768-2.113-4.768-9.83,0-4,.349-8.272,4.525-8.272,2.757,0,4.741,1.76,5.587,4.953a20.923,20.923,0,0,1,.346,4.294c0,4.982-.592,5.933-2.43,7.578m9.494,1.481c-.038-.238-.371-.336-.613-.405l-.146-.044a3.488,3.488,0,0,1-1.62-1.721,3.912,3.912,0,0,1-.156-.94c-.021-.782-.063-2.638-.118-5l-.012-19.256v-.315c0-1.429.142-1.355-1.656-1.41l-3.086-.005h-.093c-1.307,0-1.91.018-1.826.576.046.3.5.386.7.443a2.192,2.192,0,0,1,1.479,2.261l-.013,9.567h-.1c-1.317-2.564-4.266-3.18-5.824-3.18-5.793,0-9.052,4.673-9.052,10.124a10.958,10.958,0,0,0,.1,1.487c.1.745.418,2.024.4,1.965,1.182,3.958,4.215,6.828,8.063,6.815,2.252-.007,5.1-.993,6.355-3.143h.1a8.422,8.422,0,0,1,.087,1.427c0,1.345-.1,1.328,1.394,1.328h3.051v0l.556,0c1.082,0,1.752-.013,1.963-.255a.321.321,0,0,0,.072-.22.572.572,0,0,0-.007-.1" transform="translate(-690.872 -86.735)"/><path class="c" d="M895.714,965.036a1.679,1.679,0,0,1,1.771,1.854c0,4.7-5.222,6.772-9.192,7.033.693-2.846,4.1-8.887,7.42-8.887Zm6.9,6.729a22.657,22.657,0,0,1-2.541,4.578c-.2.261-4.383,5.344-8.8,5.344a3.206,3.206,0,0,1-3.537-3.321,13.6,13.6,0,0,1,.341-3.219c4.616-.431,12.863-2.562,12.863-8.427,0-2.372-2.286-3.065-4.23-3.065-6.255,0-12.424,7.636-12.424,14.54,0,2.89,1.335,5.823,5.307,5.823,6.15,0,9.985-4.949,11.268-6.824.274-.4.753-1.253,1-1.717" transform="translate(-592.445 -142.744)"/><path class="a" d="M1530.56,981.591a5.477,5.477,0,0,1-4.178-2.667c-.743-1.39-.928-2.155-.928-5.279v-.584a24.061,24.061,0,0,1,.184-3.745c.66-4.247,3.882-5.176,5.064-5.176,3.493,0,4.727,2.328,4.727,8.891,0,8.56-2.584,8.56-4.866,8.56Zm.52-18.872a6.617,6.617,0,0,0-5.723,3.471l-.009-1.3v-.307c0-1.4.14-1.325-1.617-1.379l-2.51,0h-.088c-1.278,0-1.869.017-1.785.562.044.291.485.376.682.432a2.143,2.143,0,0,1,1.447,2.21v.539l0,22.488c.01,1.451.056,1.369,1.5,1.369h2.8c1.275,0,1.86-.016,1.779-.556-.046-.293-.483-.376-.681-.431a2.133,2.133,0,0,1-1.44-2.2s.015-5.665.023-7.8a6,6,0,0,0,5.435,3c5.927,0,9.129-4.969,9.129-9.645,0-7.673-5.347-10.456-8.94-10.456Z" transform="translate(-1133.909 -141.947)"/><path class="a" d="M1789.2,955.672h.171c.2,0,.363-.067.363-.229,0-.144-.106-.238-.335-.238a.875.875,0,0,0-.2.019v.448Zm-.01.888h-.363v-1.565a3.176,3.176,0,0,1,.6-.048.965.965,0,0,1,.544.115.43.43,0,0,1,.153.343.4.4,0,0,1-.323.363v.019a.459.459,0,0,1,.284.382,1.207,1.207,0,0,0,.115.391h-.391a1.328,1.328,0,0,1-.125-.382c-.028-.172-.122-.248-.324-.248h-.171v.63Zm-.964-.82a1.213,1.213,0,0,0,1.222,1.25,1.2,1.2,0,0,0,1.192-1.241,1.208,1.208,0,1,0-2.414-.009Zm2.815,0a1.608,1.608,0,1,1-1.6-1.565,1.572,1.572,0,0,1,1.6,1.565Z" transform="translate(-1362.824 -134.661)"/><path class="e" d="M238.554,830.1c0,4.789-3.518,7.937-8.709,7.937a12.017,12.017,0,0,1-8.605-3.584l2.545-2.98a8.942,8.942,0,0,0,6.028,2.813c2.812,0,4.654-1.607,4.654-4.052v-.067c0-2.377-2.009-3.885-4.856-3.885a10.019,10.019,0,0,0-4.32,1.038l-2.478-1.641.669-11.486h14.032v3.65H227.032l-.368,5.492a9.966,9.966,0,0,1,3.718-.67c4.554,0,8.172,2.411,8.172,7.368v.067Zm-20.5,7.535H201.11v-3.248l8.072-6.866c3.214-2.746,4.388-4.219,4.388-6.329a3.515,3.515,0,0,0-3.785-3.651c-2.143,0-3.617,1.172-5.393,3.516l-2.946-2.311c2.243-3.115,4.454-4.889,8.639-4.889,4.589,0,7.737,2.813,7.737,7v.067c0,3.684-1.943,5.693-6.1,9.075l-4.822,4.019h11.152v3.617Zm26.344-41.4v11.01H189.433l9.1,19.073-9.1,19.073H244.4v10.844h.945v-60Z" transform="translate(0)"/></g></svg>